<?xml version="1.0" encoding="UTF-8"?>
<!-- Created with Inkscape (http://www.inkscape.org/) -->
<svg width="180" height="50" version="1.1" xmlns="http://www.w3.org/2000/svg" xmlns:cc="http://creativecommons.org/ns#" xmlns:dc="http://purl.org/dc/elements/1.1/" xmlns:rdf="http://www.w3.org/1999/02/22-rdf-syntax-ns#" xmlns:xlink="http://www.w3.org/1999/xlink">
 <defs>
  <linearGradient id="linearGradient5416" x1="138.95" x2="166.15" y1="1006.4" y2="1006.4" gradientTransform="matrix(.86538 0 0 .86538 13.652 -865.75)" gradientUnits="userSpaceOnUse">
   <stop offset="0"/>
   <stop stop-opacity="0" offset="1"/>
  </linearGradient>
 </defs>
 <metadata>
  <rdf:RDF>
   <cc:Work rdf:about="">
    <dc:format>image/svg+xml</dc:format>
    <dc:type rdf:resource="http://purl.org/dc/dcmitype/StillImage"/>
   </cc:Work>
  </rdf:RDF>
 </metadata>
 <g transform="translate(0 -1002.4)">
  <rect x="11.532" y="1003.9" width="158.36" height="46.73" ry="13.251" fill="none" stroke="#000" stroke-linecap="round" stroke-linejoin="round" stroke-width=".90816"/>
 </g>
 <text transform="rotate(20.189 2815.2 -501.18)" x="501.93988" y="924.18781" fill="#000000" font-family="sans-serif" letter-spacing="0px" word-spacing="0px" style="line-height:0%" xml:space="preserve"><tspan x="501.93988" y="924.18781" font-family="sans-serif" font-size="8.1085px" style="line-height:1.25">.de</tspan></text>
 <g>
  <g transform="translate(2)">
   <g transform="matrix(.99743 0 0 1.0702 12.918 -1076)">
    <path d="m48.444 1008.8v2.9883h-3.4375c-1.2891 0-2.1875 0.2604-2.6953 0.7812-0.4948 0.5209-0.7422 1.4584-0.74219 2.8125v1.9336h5.918v2.793h-5.918v19.082h-3.6133v-19.082h-3.4375v-2.793h3.4375v-1.5234c-4e-6 -2.4349 0.5664-4.2057 1.6992-5.3125 1.1328-1.1198 2.9297-1.6797 5.3906-1.6797h3.3984"/>
   </g>
   <rect x="61.193" y="3.58" width="72.737" height="3.1918"/>
   <rect x="133.89" y="3.581" width="23.545" height="3.1918" fill="url(#linearGradient5416)"/>
  </g>
  <g transform="translate(2.1255 -1001.1)">
   <g aria-label="ip ">
    <path d="m19.434 1009.6q0.74456 0 1.303 0.5212 0.59565 0.484 0.59565 1.5636 0 1.0424-0.59565 1.5636-0.55842 0.5212-1.303 0.5212-0.81902 0-1.3774-0.5212t-0.55842-1.5636q0-1.0796 0.55842-1.5636 0.55842-0.5212 1.3774-0.5212zm1.6008 7.4829v19.954h-3.2761v-19.954z"/>
    <path d="m36.857 1016.7q3.6856 0 5.9193 2.5687 2.2709 2.5688 2.2709 7.7435 0 5.1003-2.2709 7.7435-2.2337 2.6432-5.9565 2.6432-2.3081 0-3.8345-0.8563-1.4891-0.8935-2.3454-2.0475h-0.22337q0.07446 0.6328 0.14891 1.6008 0.07446 0.9679 0.07446 1.6752v8.1903h-3.2761v-28.889h2.6804l0.44674 2.7176h0.14891q0.89348-1.303 2.3454-2.1964 1.4519-0.8935 3.8717-0.8935zm-0.59565 2.7549q-3.0527 0-4.3185 1.7125-1.2285 1.7125-1.303 5.2119v0.6329q0 3.6856 1.1913 5.6959 1.2285 1.9731 4.5046 1.9731 1.8242 0 2.9783-1.0052 1.1913-1.0051 1.7497-2.7176 0.59565-1.7497 0.59565-3.9834 0-3.425-1.3402-5.4726-1.303-2.0475-4.0579-2.0475z"/>
   </g>
   <g stroke-width="1px" aria-label="inder">
    <path d="m64.107 1009.6q0.74667 0 1.3067 0.5227 0.59733 0.4853 0.59733 1.568 0 1.0453-0.59733 1.568-0.56 0.5227-1.3067 0.5227-0.82133 0-1.3813-0.5227-0.56-0.5227-0.56-1.568 0-1.0827 0.56-1.568 0.56-0.5227 1.3813-0.5227zm1.6053 7.504v20.011h-3.2853v-20.011z"/>
    <path d="m81.691 1016.8q3.584 0 5.4133 1.7547 1.8293 1.7173 1.8293 5.6v13.029h-3.248v-12.805q0-4.816-4.48-4.816-3.3227 0-4.592 1.8666-1.2693 1.8667-1.2693 5.376v10.379h-3.2853v-20.011h2.6507l0.48533 2.7254h0.18667q0.97067-1.568 2.688-2.3147 1.7173-0.784 3.6213-0.784z"/>
    <path d="m102.22 1037.5q-3.7333 0-5.9733-2.576-2.24-2.6133-2.24-7.7653t2.24-7.7653q2.2773-2.6507 6.0107-2.6507 2.3147 0 3.7707 0.8587 1.4933 0.8586 2.4267 2.0906h0.224q-0.0373-0.4853-0.14933-1.4186-0.0747-0.9707-0.0747-1.5307v-7.9893h3.2853v28.373h-2.6507l-0.48534-2.688h-0.14933q-0.896 1.2693-2.3893 2.1653t-3.8453 0.896zm0.52266-2.7253q3.1733 0 4.4427-1.7174 1.3067-1.7546 1.3067-5.2639v-0.5974q0-3.7333-1.232-5.712-1.232-2.016-4.5547-2.016-2.6507 0-3.9947 2.128-1.3067 2.0907-1.3067 5.6374 0 3.584 1.3067 5.5626 1.344 1.9787 4.032 1.9787z"/>
    <path d="m125.82 1016.8q2.576 0 4.4053 1.12 1.8667 1.12 2.8373 3.1733 1.008 2.016 1.008 4.7414v1.9786h-13.701q0.0747 3.3974 1.7173 5.1893 1.68 1.7547 4.6667 1.7547 1.904 0 3.36-0.336 1.4933-0.3733 3.0613-1.0453v2.8746q-1.5307 0.672-3.024 0.9707-1.4933 0.336-3.5467 0.336-2.8373 0-5.04-1.1573-2.1653-1.1574-3.3973-3.4347-1.1947-2.3146-1.1947-5.6373 0-3.2853 1.0827-5.6373 1.12-2.352 3.0987-3.6214 2.016-1.2693 4.6667-1.2693zm-0.0373 2.688q-2.352 0-3.7333 1.5307-1.344 1.4933-1.6053 4.1813h10.192q-0.0373-2.5387-1.1947-4.1067-1.1573-1.6053-3.6587-1.6053z"/>
    <path d="m148.48 1016.8q0.56 0 1.1947 0.075 0.672 0.037 1.1573 0.1493l-0.41067 3.024q-0.48533-0.112-1.0827-0.1867-0.56-0.075-1.0827-0.075-1.5307 0-2.8747 0.8586-1.344 0.8214-2.1653 2.352-0.784 1.4934-0.784 3.5094v10.677h-3.2853v-20.011h2.688l0.37333 3.6587h0.14933q0.97067-1.6427 2.5013-2.8373 1.5307-1.1947 3.6213-1.1947z"/>
   </g>
  </g>
 </g>
</svg>
